<svg width="14" height="19" viewBox="0 0 14 19" fill="none" xmlns="http://www.w3.org/2000/svg">
<path d="M7.36534 0C4.45528 0 2.57042 1.21359 1.09061 3.37792C0.822167 3.77054 0.904928 4.30884 1.27939 4.59785L2.85213 5.81166C3.23031 6.10353 3.7684 6.03528 4.06448 5.65773C4.97772 4.4932 5.65516 3.82271 7.08166 3.82271C8.20327 3.82271 9.59058 4.55744 9.59058 5.66449C9.59058 6.50138 8.91183 6.93118 7.80438 7.56315C6.51291 8.30014 4.80389 9.21734 4.80389 11.5118V11.875C4.80389 12.3669 5.19564 12.7656 5.67889 12.7656H8.32106C8.80432 12.7656 9.19606 12.3669 9.19606 11.875V11.6608C9.19606 10.0703 13.7631 10.004 13.7631 5.7C13.7632 2.45872 10.46 0 7.36534 0ZM7 13.8588C5.60743 13.8588 4.47449 15.012 4.47449 16.4294C4.47449 17.8468 5.60743 19 7 19C8.39256 19 9.5255 17.8468 9.5255 16.4294C9.5255 15.012 8.39256 13.8588 7 13.8588Z" fill="#70B64D"/>
</svg>
